<svg xmlns="http://www.w3.org/2000/svg" shape-rendering="geometricPrecision" text-rendering="geometricPrecision" image-rendering="optimizeQuality" fill-rule="evenodd" clip-rule="evenodd" viewBox="0 0 500 511.78"><path fill-rule="nonzero" d="M269.99 146.47l16.43 107.39c-47.97-4.33-101.97-15.61-147.47-47.71C89.7 171.39 49.9 111.66 37.64 8.81 37 3.34 32.02-.57 26.55.07c-4.21.49-7.49 3.55-8.49 7.43C7.09 40.36 1.43 71.41.25 100.48c-3.28 79.5 26.44 144.42 70.3 193.9 43.55 49.12 101.14 82.99 154.03 100.77 21.75 7.31 42.82 11.95 61.85 13.81l-16.4 91.11c-.96 5.4 2.65 10.58 8.05 11.55 2.99.54 5.92-.34 8.09-2.13l210.21-173.9c4.24-3.5 4.84-9.81 1.34-14.05l-1.15-1.16-210.18-183.11c-4.15-3.62-10.47-3.18-14.09.97-2.05 2.34-2.79 5.38-2.31 8.23zm38.08 116.85l-14.25-93.09L474.6 327.71 294.46 476.76l13.69-76.57c.21-5.5-4.07-10.13-9.57-10.34-20.03-.82-43.3-5.39-67.68-13.59-49.99-16.8-104.37-48.76-145.42-95.08-40.76-45.97-68.35-106.2-65.32-179.92.59-14.3 2.33-29.14 5.35-44.48 18.33 82.21 56.39 133.53 101.97 165.69 53.17 37.54 116.12 48.56 169.79 52.27l2.4-.07c5.45-.8 9.21-5.9 8.4-11.35z"/></svg>