<svg width="49" height="44" viewBox="0 0 49 44" fill="none" xmlns="http://www.w3.org/2000/svg">
<path d="M36.5 8.5C37.5625 8.5 38.5 9.4375 38.5 10.5625L38.5 34.5C38.5 35.625 37.5625 36.5 36.5 36.5L12.4375 36.5C11.375 36.5 10.5 35.625 10.5 34.5L10.5 10.5625C10.5 9.4375 11.375 8.5 12.4375 8.5L36.5 8.5ZM18.9375 32.5L18.9375 19.1875L14.8125 19.1875L14.8125 32.5L18.9375 32.5ZM16.875 17.3125C18.1875 17.3125 19.25 16.25 19.25 14.9375C19.25 13.625 18.1875 12.5 16.875 12.5C15.5 12.5 14.4375 13.625 14.4375 14.9375C14.4375 16.25 15.5 17.3125 16.875 17.3125ZM34.5 32.5L34.5 25.1875C34.5 21.625 33.6875 18.8125 29.5 18.8125C27.5 18.8125 26.125 19.9375 25.5625 21H25.5V19.1875L21.5625 19.1875L21.5625 32.5L25.6875 32.5L25.6875 25.9375C25.6875 24.1875 26 22.5 28.1875 22.5C30.3125 22.5 30.3125 24.5 30.3125 26L30.3125 32.5L34.5 32.5Z" fill="#C5F802"/>
</svg>
