<svg width="52" height="45" viewBox="0 0 52 45" fill="none" xmlns="http://www.w3.org/2000/svg">
<path d="M41.375 18.9375C41.625 18.75 42 18.9375 42 19.25L42 32C42 33.6875 40.625 35 39 35L13 35C11.3125 35 10 33.6875 10 32L10 19.25C10 18.9375 10.3125 18.75 10.5625 18.9375C12 20.0625 13.8125 21.4375 20.1875 26.0625C21.5 27 23.75 29.0625 26 29.0625C28.1875 29.0625 30.5 27 31.75 26.0625C38.125 21.4375 39.9375 20.0625 41.375 18.9375ZM26 27C24.5 27.0625 22.4375 25.1875 21.375 24.4375C13.0625 18.4375 12.4375 17.875 10.5625 16.375C10.1875 16.125 10 15.6875 10 15.1875L10 14C10 12.375 11.3125 11 13 11L39 11C40.625 11 42 12.375 42 14V15.1875C42 15.6875 41.75 16.125 41.375 16.375C39.5 17.875 38.875 18.4375 30.5625 24.4375C29.5 25.1875 27.4375 27.0625 26 27Z" fill="#C5F802"/>
</svg>
